<?xml version="1.0" encoding="UTF-8" standalone="no"?>
<!-- Created with Inkscape (http://www.inkscape.org/) -->

<svg
   xmlns:dc="http://purl.org/dc/elements/1.1/"
   xmlns:cc="http://creativecommons.org/ns#"
   xmlns:rdf="http://www.w3.org/1999/02/22-rdf-syntax-ns#"
   xmlns:svg="http://www.w3.org/2000/svg"
   xmlns="http://www.w3.org/2000/svg"
   xmlns:sodipodi="http://sodipodi.sourceforge.net/DTD/sodipodi-0.dtd"
   xmlns:inkscape="http://www.inkscape.org/namespaces/inkscape"
   width="128"
   height="128"
   viewBox="0 0 128 128"
   id="svg2"
   version="1.1"
   inkscape:version="0.91 r13725"
   sodipodi:docname="favicon.svg"
   inkscape:export-filename="/home/danik/Work/SoftDev/Websites/starting page/favicon.png"
   inkscape:export-xdpi="45"
   inkscape:export-ydpi="45">
  <defs
     id="defs4" />
  <sodipodi:namedview
     id="base"
     pagecolor="#dfdfdf"
     bordercolor="#666666"
     borderopacity="1.0"
     inkscape:pageopacity="0"
     inkscape:pageshadow="2"
     inkscape:zoom="3.959798"
     inkscape:cx="-32.869664"
     inkscape:cy="47.119936"
     inkscape:document-units="px"
     inkscape:current-layer="layer1"
     showgrid="false"
     units="px"
     borderlayer="true"
     inkscape:window-width="1920"
     inkscape:window-height="1011"
     inkscape:window-x="0"
     inkscape:window-y="0"
     inkscape:window-maximized="1" />
  <metadata
     id="metadata7">
    <rdf:RDF>
      <cc:Work
         rdf:about="">
        <dc:format>image/svg+xml</dc:format>
        <dc:type
           rdf:resource="http://purl.org/dc/dcmitype/StillImage" />
        <dc:title />
      </cc:Work>
    </rdf:RDF>
  </metadata>
  <g
     inkscape:label="Layer 1"
     inkscape:groupmode="layer"
     id="layer1"
     transform="translate(0,-924.3622)">
    <rect
       style="opacity:1;fill:#2b0a0a;fill-opacity:1;stroke:none;stroke-opacity:1"
       id="rect4136"
       width="128"
       height="128"
       x="0"
       y="924.36218" />
    <rect
       style="opacity:1;fill:#2e2e2e;fill-opacity:1;stroke:none;stroke-opacity:1"
       id="rect4143"
       width="31.567266"
       height="59.851536"
       x="5.0507617"
       y="984.51068" />
    <rect
       style="opacity:1;fill:#2e2e2e;fill-opacity:1;stroke:none;stroke-opacity:1"
       id="rect4143-1"
       width="31.567266"
       height="59.851536"
       x="47.666573"
       y="984.51068" />
    <rect
       style="opacity:1;fill:#2e2e2e;fill-opacity:1;stroke:none;stroke-opacity:1"
       id="rect4143-3"
       width="31.567266"
       height="59.851536"
       x="90.282387"
       y="984.51068" />
    <text
       xml:space="preserve"
       style="font-style:normal;font-variant:normal;font-weight:normal;font-stretch:normal;font-size:24.64117432px;line-height:125%;font-family:'GLYPHICONS Halflings';-inkscape-font-specification:'GLYPHICONS Halflings';letter-spacing:0px;word-spacing:0px;fill:#000000;fill-opacity:1;stroke:none;stroke-width:1px;stroke-linecap:butt;stroke-linejoin:miter;stroke-opacity:1"
       x="5.9805193"
       y="962.9325"
       id="text4175"
       sodipodi:linespacing="125%"><tspan
         sodipodi:role="line"
         id="tspan4177"
         x="5.9805193"
         y="962.9325"
         style="font-style:normal;font-variant:normal;font-weight:normal;font-stretch:normal;font-family:'GLYPHICONS Halflings';-inkscape-font-specification:'GLYPHICONS Halflings';letter-spacing:-2px;fill:#ffffff;fill-opacity:1">10:30</tspan></text>
    <text
       xml:space="preserve"
       style="font-style:normal;font-variant:normal;font-weight:normal;font-stretch:normal;font-size:7.5px;line-height:125%;font-family:'GLYPHICONS Halflings';-inkscape-font-specification:'GLYPHICONS Halflings';letter-spacing:0px;word-spacing:0px;fill:#000000;fill-opacity:1;stroke:none;stroke-width:1px;stroke-linecap:butt;stroke-linejoin:miter;stroke-opacity:1"
       x="9.8489876"
       y="974.30762"
       id="text4179"
       sodipodi:linespacing="125%"><tspan
         sodipodi:role="line"
         id="tspan4181"
         x="9.8489876"
         y="974.30762"
         style="font-style:normal;font-variant:normal;font-weight:normal;font-stretch:normal;font-family:'GLYPHICONS Halflings';-inkscape-font-specification:'GLYPHICONS Halflings';letter-spacing:0px;fill:#ffffff;fill-opacity:1">06 June 2016</tspan></text>
    <g
       transform="matrix(0.05217124,0,0,0.05217124,88.640885,940.6594)"
       id="g3">
      <g
         id="Cloud__x2B__Sun">
        <g
           id="g6">
          <path
             style="fill:#ffffff"
             inkscape:connector-curvature="0"
             d="m 439.104,286.625 c -9.183,-67.617 -53.536,-117.026 -123.716,-117.026 -58.751,0 -91.29,34.602 -111.335,88.32 -7.324,-1.746 -14.852,-2.63 -22.448,-2.63 -52.493,0 -95.122,44.67 -95.122,95.939 0,49.046 41.087,87.866 91.562,90.814 l 251.807,0 c 43.763,0 80.134,-36.734 80.134,-79.476 -0.022,-39.547 -30.928,-71.769 -70.882,-75.941 z m -9.251,132.718 -251.808,0 c -36.439,-2.131 -68.683,-32.471 -68.683,-68.116 0,-37.255 34.081,-70.565 72.243,-70.565 8.934,0 17.687,1.701 26.054,4.989 l 13.809,5.487 3.696,-14.036 c 12.925,-49.069 38.412,-84.805 90.224,-84.805 60.86,0 96.097,48.026 98.818,107.48 l 0.59,12.902 15.782,-1.111 c 29.432,0 56.484,22.267 56.484,51.019 0.023,28.752 -27.777,56.756 -57.209,56.756 z M 184.009,152.366 c 19.886,0 38.321,5.918 54.012,15.759 6.78,-4.989 14.104,-9.183 22.154,-12.426 -21.088,-16.235 -47.482,-26.008 -76.188,-26.008 -68.66,0 -124.532,55.418 -124.532,123.511 0,17.868 3.923,34.806 10.839,50.157 3.787,-9.478 9.07,-18.095 15.351,-26.031 -1.95,-7.778 -3.265,-15.782 -3.265,-24.126 -10e-4,-55.599 45.576,-100.836 101.629,-100.836 z m 0.929,-46.212 c 6.394,0 12.63,0.612 18.775,1.519 l 1.292,0 -20.068,-39.727 -20.09,39.727 1.292,0 c 6.147,-0.884 12.382,-1.519 18.799,-1.519 z m -144.871,166.889 0,-1.292 c -0.907,-6.1 -1.519,-12.29 -1.519,-18.616 0,-6.349 0.612,-12.517 1.519,-18.616 l 0,-1.292 L 0,253.134 40.067,273.043 Z M 63.445,170.937 c 3.696,-4.943 7.664,-9.75 12.199,-14.24 4.512,-4.49 9.365,-8.412 14.353,-12.109 l 0.907,-0.907 -42.516,-14.013 14.127,42.176 0.93,-0.907 z"
             id="path8" />
        </g>
      </g>
    </g>
    <g
       transform="matrix(0.03137341,0,0,0.03137341,88.893423,953.89352)"
       id="g10" />
    <g
       transform="matrix(0.03137341,0,0,0.03137341,88.893423,953.89352)"
       id="g12" />
    <g
       transform="matrix(0.03137341,0,0,0.03137341,88.893423,953.89352)"
       id="g14" />
    <g
       transform="matrix(0.03137341,0,0,0.03137341,88.893423,953.89352)"
       id="g16" />
    <g
       transform="matrix(0.03137341,0,0,0.03137341,88.893423,953.89352)"
       id="g18" />
    <g
       transform="matrix(0.03137341,0,0,0.03137341,88.893423,953.89352)"
       id="g20" />
    <g
       transform="matrix(0.03137341,0,0,0.03137341,88.893423,953.89352)"
       id="g22" />
    <g
       transform="matrix(0.03137341,0,0,0.03137341,88.893423,953.89352)"
       id="g24" />
    <g
       transform="matrix(0.03137341,0,0,0.03137341,88.893423,953.89352)"
       id="g26" />
    <g
       transform="matrix(0.03137341,0,0,0.03137341,88.893423,953.89352)"
       id="g28" />
    <g
       transform="matrix(0.03137341,0,0,0.03137341,88.893423,953.89352)"
       id="g30" />
    <g
       transform="matrix(0.03137341,0,0,0.03137341,88.893423,953.89352)"
       id="g32" />
    <g
       transform="matrix(0.03137341,0,0,0.03137341,88.893423,953.89352)"
       id="g34" />
    <g
       transform="matrix(0.03137341,0,0,0.03137341,88.893423,953.89352)"
       id="g36" />
    <g
       transform="matrix(0.03137341,0,0,0.03137341,88.893423,953.89352)"
       id="g38" />
    <text
       xml:space="preserve"
       style="font-style:normal;font-weight:normal;font-size:7.5px;line-height:125%;font-family:sans-serif;letter-spacing:-33.99000168px;word-spacing:0px;fill:#000000;fill-opacity:1;stroke:none;stroke-width:1px;stroke-linecap:butt;stroke-linejoin:miter;stroke-opacity:1"
       x="94.954346"
       y="975.00525"
       id="text4189"
       sodipodi:linespacing="125%"><tspan
         sodipodi:role="line"
         id="tspan4191"
         x="94.954346"
         y="975.00525"
         style="letter-spacing:0px;fill:#ffffff;fill-opacity:1">18°C</tspan></text>
  </g>
  <g
     inkscape:groupmode="layer"
     id="layer2"
     inkscape:label="Layer 2">
    <rect
       style="opacity:1;fill:#2e2e2e;fill-opacity:1;stroke:none;stroke-opacity:1"
       id="rect4141"
       width="128"
       height="10"
       x="0"
       y="0" />
  </g>
</svg>
