<?xml version="1.0" encoding="iso-8859-1"?>
<!-- Generator: Adobe Illustrator 19.1.0, SVG Export Plug-In . SVG Version: 6.00 Build 0)  -->
<svg xmlns="http://www.w3.org/2000/svg" xmlns:xlink="http://www.w3.org/1999/xlink" version="1.1" id="Capa_1" x="0px" y="0px" viewBox="0 0 509.987 509.987" style="enable-background:new 0 0 509.987 509.987;" xml:space="preserve" width="512px" height="512px">
<g>
	<g id="Cloud__x2B__Sun">
		<g>
			<path d="M439.104,286.625c-9.183-67.617-53.536-117.026-123.716-117.026c-58.751,0-91.29,34.602-111.335,88.32     c-7.324-1.746-14.852-2.63-22.448-2.63c-52.493,0-95.122,44.67-95.122,95.939c0,49.046,41.087,87.866,91.562,90.814h251.807     c43.763,0,80.134-36.734,80.134-79.476C509.964,323.019,479.058,290.797,439.104,286.625z M429.853,419.343H178.045     c-36.439-2.131-68.683-32.471-68.683-68.116c0-37.255,34.081-70.565,72.243-70.565c8.934,0,17.687,1.701,26.054,4.989     l13.809,5.487l3.696-14.036c12.925-49.069,38.412-84.805,90.224-84.805c60.86,0,96.097,48.026,98.818,107.48l0.59,12.902     l15.782-1.111c29.432,0,56.484,22.267,56.484,51.019C487.085,391.339,459.285,419.343,429.853,419.343z M184.009,152.366     c19.886,0,38.321,5.918,54.012,15.759c6.78-4.989,14.104-9.183,22.154-12.426c-21.088-16.235-47.482-26.008-76.188-26.008     c-68.66,0-124.532,55.418-124.532,123.511c0,17.868,3.923,34.806,10.839,50.157c3.787-9.478,9.07-18.095,15.351-26.031     c-1.95-7.778-3.265-15.782-3.265-24.126C82.379,197.603,127.956,152.366,184.009,152.366z M184.938,106.154     c6.394,0,12.63,0.612,18.775,1.519h1.292l-20.068-39.727l-20.09,39.727h1.292C172.286,106.789,178.521,106.154,184.938,106.154z      M40.067,273.043v-1.292c-0.907-6.1-1.519-12.29-1.519-18.616c0-6.349,0.612-12.517,1.519-18.616v-1.292L0,253.134     L40.067,273.043z M63.445,170.937c3.696-4.943,7.664-9.75,12.199-14.24c4.512-4.49,9.365-8.412,14.353-12.109l0.907-0.907     l-42.516-14.013l14.127,42.176L63.445,170.937z" fill="#FFFFFF"/>
		</g>
	</g>
</g>
<g>
</g>
<g>
</g>
<g>
</g>
<g>
</g>
<g>
</g>
<g>
</g>
<g>
</g>
<g>
</g>
<g>
</g>
<g>
</g>
<g>
</g>
<g>
</g>
<g>
</g>
<g>
</g>
<g>
</g>
</svg>
